<svg width="372" height="331" viewBox="0 0 372 331" fill="none" xmlns="http://www.w3.org/2000/svg">
<path d="M186 237.258C136.491 237.258 89.9227 229.892 54.8733 216.517C19.3568 202.964 -0.202881 184.758 -0.202881 165.253C-0.202881 145.748 19.3568 127.543 54.8733 113.99C89.9227 100.615 136.491 93.2491 186 93.2491C235.509 93.2491 282.077 100.615 317.127 113.99C352.643 127.543 372.203 145.748 372.203 165.253C372.203 184.758 352.643 202.964 317.127 216.517C282.077 229.892 235.509 237.258 186 237.258ZM186 96.3209C136.857 96.3209 90.6776 103.615 55.9696 116.859C21.728 129.926 2.87066 147.113 2.87066 165.253C2.87066 183.393 21.728 200.581 55.9696 213.647C90.6776 226.892 136.857 234.186 186 234.186C235.144 234.186 281.323 226.892 316.031 213.647C350.272 200.581 369.129 183.394 369.129 165.253C369.129 147.112 350.272 129.926 316.031 116.859C281.323 103.615 235.144 96.3209 186 96.3209Z" fill="#675ECE"/>
<path d="M262.933 330.507C247.546 330.507 228.367 321.619 207.142 304.379C178.028 280.73 148.361 244.107 123.607 201.256C98.8521 158.404 81.9506 114.415 76.0155 77.3911C70.0012 39.8739 75.9971 13.8417 92.8986 4.0894C109.8 -5.66253 135.356 2.16391 164.858 26.1273C193.972 49.7765 223.639 86.3998 248.393 129.251C273.148 172.102 290.049 216.092 295.984 253.116C301.999 290.633 296.003 316.665 279.101 326.418C274.359 329.154 268.933 330.507 262.933 330.507ZM109.149 3.0481C103.664 3.0481 98.7286 4.27202 94.4354 6.74946C78.7157 15.8201 73.2518 40.7348 79.0504 76.9051C84.9277 113.568 101.697 157.184 126.268 199.72C150.84 242.254 180.25 278.577 209.081 301.995C237.524 325.1 261.846 332.829 277.565 323.757C293.284 314.687 298.748 289.772 292.95 253.602C287.072 216.939 270.303 173.322 245.732 130.787C221.16 88.2522 191.75 51.93 162.919 28.5114C142.245 11.7179 123.748 3.0481 109.149 3.0481Z" fill="#675ECE"/>
<path d="M109.067 330.507C103.065 330.507 97.6417 329.155 92.8986 326.418C75.9971 316.665 70.0012 290.633 76.0155 253.116C81.9506 216.092 98.8521 172.102 123.607 129.251C148.361 86.3998 178.028 49.7765 207.142 26.1273C236.644 2.16354 262.201 -5.66365 279.101 4.0894C296.003 13.8417 301.999 39.8739 295.984 77.3911C290.049 114.415 273.148 158.404 248.393 201.256C223.639 244.107 193.972 280.73 164.858 304.379C143.635 321.618 124.453 330.507 109.067 330.507ZM262.85 3.04811C248.251 3.04811 229.757 11.7167 209.081 28.5114C180.25 51.93 150.84 88.2522 126.268 130.787C101.697 173.322 84.9277 216.938 79.0504 253.602C73.2518 289.772 78.7157 314.687 94.4353 323.757C98.7279 326.234 103.665 327.458 109.149 327.459C123.748 327.46 142.243 318.79 162.919 301.995C191.75 278.577 221.16 242.254 245.732 199.72C270.303 157.184 287.072 113.568 292.95 76.9051C298.748 40.7348 293.284 15.8201 277.565 6.74946C273.272 4.27276 268.335 3.04811 262.85 3.04811Z" fill="#675ECE"/>
<path d="M186 199.649C205.007 199.649 220.415 184.249 220.415 165.253C220.415 146.257 205.007 130.858 186 130.858C166.993 130.858 151.585 146.257 151.585 165.253C151.585 184.249 166.993 199.649 186 199.649Z" fill="#675ECE"/>
</svg>
